<?xml version="1.0" standalone="no"?>
<!DOCTYPE svg PUBLIC "-//W3C//DTD SVG 20010904//EN"
 "http://www.w3.org/TR/2001/REC-SVG-20010904/DTD/svg10.dtd">
<svg version="1.0" xmlns="http://www.w3.org/2000/svg"
 width="3072.000000pt" height="5008.000000pt" viewBox="0 0 3072.000000 5008.000000"
 preserveAspectRatio="xMidYMid meet">

<g transform="translate(0.000000,5008.000000) scale(0.100000,-0.100000)"
fill="#000000" stroke="none">
<path d="M0 25040 l0 -25040 15360 0 15360 0 0 25040 0 25040 -15360 0 -15360
0 0 -25040z m19381 15360 l59 0 0 -40 0 -40 -80 0 -80 0 0 39 c0 39 -1 40 -37
44 -21 2 -11 3 21 1 32 -2 85 -4 117 -4z m-201 -40 c0 -22 5 -40 10 -40 6 0
10 -16 10 -36 l0 -36 40 32 c47 37 37 42 143 -62 51 -51 64 -58 98 -58 39 0
39 0 39 -40 0 -33 -3 -40 -20 -40 -17 0 -20 -7 -20 -40 0 -33 3 -40 20 -40 17
0 20 -7 20 -40 l0 -40 -40 0 c-33 0 -40 3 -40 20 0 25 -15 26 -32 1 -7 -10
-22 -20 -33 -22 -16 -3 -12 -9 23 -37 l42 -34 0 30 c0 28 2 29 61 36 135 14
167 9 215 -30 30 -25 44 -44 44 -60 0 -21 5 -24 40 -24 36 0 40 -3 40 -24 0
-16 13 -35 40 -56 30 -24 40 -28 40 -16 0 9 4 16 9 16 14 0 33 -28 27 -39 -7
-11 26 -7 46 5 6 4 8 3 4 -4 -3 -5 12 -25 34 -42 30 -24 40 -28 40 -16 0 9 4
16 8 16 14 0 32 -23 32 -42 0 -10 9 -23 20 -30 11 -7 20 -18 20 -25 0 -7 5
-13 11 -13 5 0 8 -4 5 -8 -3 -5 12 -8 34 -7 36 2 40 -1 56 -37 11 -24 24 -38
36 -38 15 0 18 -8 18 -58 0 -46 4 -60 20 -70 19 -12 20 -23 20 -222 0 -203 -1
-210 -20 -210 -16 0 -20 -7 -21 -37 -1 -21 -1 -41 0 -45 0 -4 -17 -21 -39 -38
-22 -18 -40 -40 -40 -51 0 -11 -7 -31 -16 -44 -15 -23 -15 -25 0 -25 9 0 16
-8 16 -20 0 -17 -7 -20 -40 -20 -29 0 -40 -4 -40 -15 0 -9 -7 -18 -16 -22 -35
-13 -64 -54 -64 -88 0 -34 -1 -35 -40 -35 -28 0 -40 -4 -40 -14 0 -8 -18 -23
-40 -35 -22 -11 -40 -16 -40 -10 0 6 -17 -3 -37 -19 -28 -22 -53 -31 -95 -35
l-58 -6 0 40 c0 28 4 39 15 39 11 0 15 11 15 40 0 33 -3 40 -20 40 -16 0 -20
7 -20 36 0 38 -15 74 -30 74 -6 0 -10 -7 -10 -15 0 -8 -4 -15 -10 -15 -5 0
-10 -16 -10 -35 0 -21 -8 -44 -22 -60 -26 -30 -38 -32 -38 -5 0 11 5 20 10 20
6 0 10 18 10 40 0 22 -4 40 -10 40 -5 0 -10 9 -10 21 0 35 -23 16 -55 -44 -19
-36 -36 -57 -47 -57 -16 0 -18 10 -18 80 0 65 -3 80 -15 80 -9 0 -18 7 -21 15
-4 8 -13 15 -20 15 -8 0 -17 -7 -20 -15 -4 -9 -19 -15 -36 -15 -25 0 -29 3
-22 18 4 9 10 45 12 80 3 45 8 62 18 62 10 0 14 12 14 40 0 39 -1 40 -35 40
-34 0 -35 -1 -35 -40 0 -33 -3 -40 -20 -40 -13 0 -20 7 -20 20 0 23 -10 26
-28 8 -18 -18 -15 -28 8 -28 17 0 20 -7 20 -39 l0 -38 -61 -7 c-34 -3 -88 -6
-120 -6 l-59 0 0 49 c0 46 -3 52 -40 81 -31 24 -44 29 -54 21 -7 -6 -16 -8
-19 -4 -15 15 -5 23 29 23 24 0 34 4 31 13 -4 14 -100 11 -105 -4 -9 -23 -22
-5 -22 31 0 33 -3 40 -20 40 -17 0 -20 -7 -20 -39 0 -22 -4 -43 -10 -46 -5 -3
-10 4 -10 16 0 21 -1 21 -26 4 -37 -24 -82 -23 -100 3 -19 27 -48 28 -66 4 -7
-10 -30 -21 -50 -25 l-37 -6 -7 45 c-8 56 -18 62 -48 27 -23 -26 -25 -27 -43
-11 -10 8 -38 19 -63 22 -36 5 -41 4 -27 -4 14 -9 16 -15 7 -25 -10 -12 -16
-10 -35 10 -12 14 -30 25 -39 25 -9 0 -19 7 -23 16 -5 14 -9 13 -23 -6 -17
-23 -18 -23 -24 -3 -6 20 -29 34 -102 62 -18 7 -41 23 -53 37 -17 19 -30 24
-72 24 -38 0 -70 9 -127 37 -48 23 -94 38 -122 39 -74 4 -99 11 -135 38 -44
34 -170 64 -196 47 -26 -16 -50 -14 -111 8 -64 22 -140 29 -120 9 17 -17 15
-48 -4 -48 -8 0 -29 14 -46 30 -16 17 -34 30 -39 30 -5 0 -9 3 -9 8 0 4 -45 7
-101 8 -81 0 -103 3 -110 16 -7 12 -21 14 -67 11 -47 -4 -62 -1 -82 15 l-25
20 48 7 c45 7 57 25 16 25 -10 0 -19 5 -19 11 0 7 -12 0 -26 -15 -15 -14 -35
-26 -45 -26 -12 0 -19 -7 -19 -18 0 -26 -11 -34 -27 -21 -20 17 -16 39 7 39
11 0 23 7 27 15 7 21 -4 32 -19 17 -7 -7 -23 -12 -36 -12 -19 0 -23 -4 -17
-17 14 -32 16 -58 6 -73 -8 -12 -13 -12 -35 -1 -13 8 -32 11 -40 8 -10 -4 -16
-1 -16 7 0 8 11 17 24 20 24 6 40 31 30 47 -7 12 -34 11 -73 -2 -27 -9 -32
-16 -29 -38 3 -23 -2 -27 -42 -38 -25 -6 -69 -12 -97 -12 -29 -1 -53 -5 -53
-11 0 -5 -13 -10 -28 -10 -16 0 -32 -3 -36 -7 -4 -5 -12 -8 -17 -8 -5 0 -10
-4 -10 -10 -2 -14 -75 -35 -122 -35 -37 0 -87 -24 -87 -41 0 -12 104 1 108 12
2 5 13 9 25 9 22 -1 22 -1 3 -15 -15 -11 -16 -15 -5 -15 8 0 28 -13 43 -29 25
-26 26 -30 9 -35 -33 -10 -187 -20 -270 -17 -57 2 -90 -2 -110 -12 l-28 -15
38 -7 c21 -4 80 -4 133 0 61 4 99 3 107 -3 7 -6 32 -12 55 -14 23 -2 41 -7 40
-13 -2 -5 -14 -8 -28 -7 -15 2 -20 0 -13 -5 7 -5 9 -14 3 -23 -7 -11 -17 -12
-54 -3 -24 5 -51 6 -58 2 -9 -6 -4 -9 14 -9 15 0 33 -7 42 -15 8 -8 21 -15 28
-15 8 0 19 -5 25 -11 7 -7 25 -12 40 -13 17 -1 27 -6 25 -13 -1 -8 9 -13 27
-13 17 0 33 -4 36 -10 3 -5 15 -10 26 -10 10 0 19 -6 19 -14 0 -23 24 -35 86
-42 32 -3 64 -12 69 -19 11 -13 16 -15 40 -15 8 0 15 -4 15 -9 0 -12 -114 -5
-192 12 -67 15 -113 13 -102 -4 3 -5 27 -9 55 -9 27 0 49 -4 49 -9 0 -9 30
-19 84 -28 36 -6 78 -32 70 -44 -3 -5 2 -6 11 -3 8 4 21 1 28 -4 7 -6 32 -14
55 -18 57 -9 55 10 -4 36 -42 20 -44 22 -28 35 13 9 25 10 39 3 69 -33 83 -43
74 -49 -12 -7 73 -39 106 -39 11 0 26 5 33 12 9 9 12 7 12 -10 0 -19 5 -22 40
-22 22 0 40 -4 40 -10 0 -5 18 -10 40 -10 41 0 49 7 28 28 -9 9 -9 12 -1 12 7
0 15 -4 18 -10 3 -5 17 -10 31 -10 15 0 24 -6 24 -15 0 -23 30 -65 46 -65 16
0 49 -17 77 -39 15 -12 19 -12 35 2 16 15 21 13 65 -29 37 -34 55 -44 81 -44
27 0 35 -5 40 -24 3 -14 20 -34 36 -46 96 -68 95 -190 -2 -190 -21 0 -38 5
-38 10 0 21 -19 9 -39 -25 -12 -21 -28 -35 -40 -35 -11 0 -26 -8 -33 -18 -11
-15 -26 -18 -79 -16 -37 0 -71 4 -78 8 -35 22 -734 1 -816 -24 -53 -16 -249
-62 -285 -67 -19 -2 -44 -8 -55 -13 -37 -15 -129 -42 -218 -64 -48 -12 -87
-25 -87 -30 1 -5 -14 -17 -32 -29 l-33 -20 25 -9 c22 -8 73 -1 151 22 14 4 32
4 40 0 12 -7 141 23 254 58 32 10 122 45 170 67 97 44 135 55 243 70 183 26
282 8 314 -56 19 -39 13 -51 -35 -69 -18 -7 -46 -19 -64 -26 -37 -17 -55 -18
-69 -4 -7 7 -19 4 -38 -11 -17 -13 -41 -21 -64 -21 -20 1 -109 -8 -197 -18
-328 -40 -362 -43 -396 -36 -59 12 -129 6 -165 -15 -19 -10 -43 -19 -54 -19
-10 0 -59 -13 -108 -30 -50 -16 -99 -30 -111 -30 -14 0 -21 -6 -21 -20 0 -13
7 -20 19 -20 10 0 24 -7 31 -15 10 -12 9 -16 -4 -21 -12 -4 -15 -16 -12 -40 2
-20 -2 -38 -10 -45 -44 -37 39 -71 179 -74 10 0 21 -5 25 -10 4 -6 26 -12 50
-14 33 -2 42 1 42 13 0 20 34 21 54 1 16 -17 30 -20 22 -6 -4 5 6 12 21 15 39
8 165 -2 177 -14 13 -13 46 -13 46 0 0 5 19 1 43 -9 23 -11 57 -25 75 -32 18
-6 49 -25 69 -40 20 -16 44 -29 54 -29 11 0 19 -5 19 -10 0 -6 6 -10 13 -9 39
5 49 -1 43 -25 -7 -28 10 -38 52 -30 22 4 29 0 38 -20 10 -21 9 -25 -8 -29
-16 -5 -17 -9 -7 -31 7 -14 20 -26 31 -26 20 0 24 -15 8 -25 -14 -9 7 -35 27
-35 7 0 17 -9 21 -19 7 -19 9 -19 40 -4 30 15 34 15 46 -2 8 -12 20 -16 35
-12 22 5 48 -23 33 -37 -3 -4 1 -4 9 -1 11 4 30 -7 54 -29 21 -20 44 -36 51
-36 34 0 9 -18 -41 -30 -30 -7 -53 -15 -51 -17 3 -3 24 -9 48 -14 23 -6 50
-16 58 -24 16 -14 31 -16 320 -35 107 -8 198 -17 201 -22 3 -4 29 -9 58 -9 34
-1 54 -6 58 -15 3 -10 23 -14 63 -14 l57 0 18 -41 c17 -37 21 -40 49 -35 62
12 86 13 92 5 8 -14 34 -10 34 5 0 7 15 19 33 26 74 28 110 54 141 102 12 19
15 36 10 62 -5 29 -3 36 9 36 9 0 17 7 19 16 3 13 7 13 27 -5 44 -38 95 -40
108 -4 3 10 15 30 25 45 10 14 18 33 18 40 0 15 59 139 70 148 8 6 34 70 37
90 3 25 37 95 51 105 26 20 62 128 60 179 -1 41 3 52 20 64 12 8 22 20 22 27
0 25 52 65 84 65 18 0 41 7 52 15 10 8 29 15 42 15 12 0 22 6 22 13 0 15 65
41 80 32 5 -3 27 3 49 15 22 11 53 20 69 20 15 0 32 4 37 9 11 10 186 71 204
71 19 0 41 26 41 49 0 19 6 21 74 21 41 0 82 3 91 6 14 6 16 0 13 -32 -2 -32
-7 -40 -26 -42 -16 -2 -22 -9 -19 -20 2 -9 9 -16 15 -14 7 1 12 -4 12 -12 0
-8 8 -21 18 -28 11 -7 24 -30 31 -50 7 -21 17 -38 21 -38 5 0 1 -15 -9 -32
-22 -41 -18 -128 6 -128 13 0 15 -11 9 -67 -3 -38 -2 -93 4 -123 6 -30 13 -72
16 -92 4 -21 11 -38 15 -38 5 0 9 -15 9 -34 0 -66 12 -126 26 -126 10 0 14
-15 14 -55 0 -42 7 -70 30 -116 17 -33 28 -63 26 -68 -3 -4 1 -17 9 -27 8 -10
15 -30 15 -44 0 -14 7 -36 15 -50 8 -14 15 -36 15 -50 0 -14 7 -33 15 -43 7
-11 11 -25 9 -32 -3 -7 0 -16 5 -20 19 -11 41 -75 41 -117 0 -24 5 -41 14 -44
8 -3 17 -17 20 -32 8 -33 38 -96 49 -100 4 -2 7 -11 7 -20 0 -9 7 -30 15 -46
8 -15 15 -36 15 -45 0 -9 11 -38 25 -66 13 -27 25 -57 25 -66 0 -9 6 -22 14
-28 8 -7 17 -24 21 -39 4 -15 12 -40 20 -57 7 -16 21 -52 30 -80 10 -27 35
-79 57 -114 22 -38 36 -72 33 -82 -4 -10 2 -23 12 -31 10 -7 31 -51 47 -98 16
-47 38 -105 49 -130 12 -25 22 -52 23 -60 1 -8 9 -42 17 -75 22 -84 28 -202
17 -314 -12 -110 -26 -161 -50 -178 -10 -7 -23 -25 -29 -42 -7 -16 -23 -32
-36 -35 -13 -3 -44 -26 -69 -51 -59 -57 -82 -71 -128 -79 -21 -4 -44 -14 -52
-22 -25 -24 -243 -76 -301 -71 -60 5 -124 28 -140 51 -7 9 -20 16 -29 16 -9 0
-16 4 -16 9 0 5 -22 18 -50 30 -27 12 -54 30 -59 40 -6 10 -23 23 -38 29 -66
24 -138 43 -162 42 -50 -2 -66 -1 -118 6 -29 4 -53 11 -53 16 0 5 -7 5 -18 -1
-9 -5 -49 -11 -89 -14 -39 -3 -80 -10 -91 -16 -12 -6 -28 -11 -38 -11 -9 0
-22 -6 -28 -13 -13 -16 -126 -60 -126 -49 0 4 -4 2 -8 -4 -4 -6 -32 -23 -62
-38 -30 -15 -60 -33 -65 -40 -6 -8 -26 -21 -45 -29 -19 -8 -46 -25 -60 -39
-14 -14 -48 -37 -76 -52 -51 -28 -74 -47 -139 -120 -30 -32 -38 -36 -50 -26
-9 7 -18 10 -21 7 -7 -6 18 -47 28 -47 5 0 8 -9 8 -20 0 -22 118 -143 162
-166 44 -23 118 -45 210 -64 98 -20 227 -13 294 15 20 8 43 15 50 15 8 0 34 9
59 21 33 16 55 19 82 15 21 -4 58 -6 83 -6 47 1 181 -35 179 -48 -4 -22 4 -31
32 -37 17 -4 50 -26 73 -50 24 -23 52 -46 63 -49 17 -5 18 -14 15 -74 -2 -37
-8 -71 -13 -76 -5 -6 -9 -41 -9 -78 0 -38 -6 -77 -12 -88 -11 -17 -10 -22 2
-30 11 -7 12 -12 3 -18 -46 -29 -38 -176 19 -375 6 -20 8 -40 5 -43 -4 -4 -33
-6 -64 -5 -157 6 -299 -5 -330 -25 -12 -8 -33 -14 -46 -14 -12 0 -27 -4 -32
-9 -6 -5 -54 -14 -107 -20 -53 -6 -109 -16 -125 -23 -15 -6 -41 -13 -58 -15
-16 -3 -37 -11 -46 -19 -8 -8 -24 -14 -35 -14 -10 0 -27 -7 -37 -15 -11 -7
-37 -17 -60 -20 -22 -4 -56 -16 -74 -26 -19 -11 -51 -19 -72 -19 -23 0 -48 -8
-63 -20 -14 -10 -40 -21 -59 -23 -19 -2 -51 -12 -71 -21 -23 -11 -48 -16 -65
-12 -21 5 -35 0 -57 -19 -16 -14 -32 -25 -35 -25 -29 0 -138 23 -155 32 -12 7
-31 11 -43 9 -12 -1 -31 7 -42 18 -11 11 -32 21 -48 23 -15 2 -27 8 -26 15 3
14 -100 6 -105 -9 -2 -4 -10 -8 -19 -8 -10 0 -12 6 -8 20 5 16 2 20 -15 20
-17 0 -20 -4 -15 -20 4 -14 2 -20 -8 -20 -9 0 -17 5 -19 11 -2 7 -23 3 -58
-10 -67 -26 -97 -27 -103 -3 -2 9 -3 5 -1 -10 3 -21 -1 -27 -19 -30 -13 -2
-30 -17 -42 -40 -12 -23 -29 -38 -45 -41 -34 -7 -81 -53 -103 -99 -9 -21 -24
-38 -32 -38 -8 0 -23 -18 -32 -40 -10 -22 -21 -40 -25 -40 -5 0 -8 -6 -8 -14
0 -9 -7 -12 -20 -9 -21 6 -28 -12 -7 -20 8 -3 5 -10 -10 -24 -12 -10 -25 -31
-28 -46 -4 -15 -12 -30 -17 -33 -6 -4 -5 -10 3 -15 9 -6 2 -7 -18 -3 -29 6
-33 4 -33 -15 0 -24 10 -27 28 -9 9 9 12 1 12 -39 0 -47 -2 -51 -27 -58 -25
-6 -26 -8 -11 -19 10 -7 15 -16 11 -19 -15 -16 37 -5 58 12 40 31 66 35 81 12
15 -25 73 -29 82 -6 3 8 14 15 25 15 12 0 28 11 37 25 9 14 26 25 38 25 11 0
37 10 56 21 19 12 52 23 74 26 23 2 45 8 51 12 24 19 117 32 179 26 36 -4 66
-11 66 -15 0 -5 9 -6 19 -3 11 3 35 0 53 -5 18 -6 51 -12 73 -14 38 -3 40 -2
38 25 -1 18 3 27 13 27 18 0 44 -24 44 -39 0 -6 12 -14 26 -17 29 -7 47 10 39
37 -4 12 3 16 37 17 54 2 86 -7 67 -19 -11 -6 -10 -9 3 -14 10 -4 26 2 40 15
15 14 33 20 53 18 29 -3 30 -5 32 -53 1 -27 2 -56 2 -62 2 -22 21 -14 21 7 0
12 9 31 20 43 12 12 23 32 26 44 4 14 14 23 25 23 27 0 35 -27 14 -50 -12 -13
-15 -27 -11 -45 9 -34 36 -30 54 8 8 16 25 32 38 37 13 5 24 14 24 20 0 18 39
11 59 -11 l19 -21 11 21 c16 29 41 27 41 -4 0 -27 25 -34 59 -16 10 6 23 6 32
1 11 -8 12 -13 2 -30 -7 -11 -13 -28 -13 -37 1 -14 7 -11 28 13 15 17 34 40
42 52 8 12 20 22 27 22 16 0 17 -12 2 -27 -7 -7 -6 -15 5 -26 9 -9 16 -19 16
-24 0 -5 6 -21 13 -36 13 -28 27 -36 27 -14 1 6 7 -3 16 -22 13 -30 13 -37 -1
-57 -8 -13 -15 -45 -16 -71 -1 -82 -8 -104 -32 -102 -43 3 -47 0 -47 -41 0
-29 4 -40 15 -40 40 0 -6 -43 -68 -65 -57 -20 -74 -19 -82 5 -5 16 -15 20 -56
20 -35 0 -49 -4 -49 -14 0 -9 -17 -15 -55 -18 -38 -3 -60 -10 -69 -23 -12 -17
-61 -47 -98 -61 -10 -3 -18 -15 -18 -25 0 -15 -7 -19 -39 -19 -22 0 -41 5 -43
12 -3 8 -19 -2 -42 -24 l-38 -37 18 -30 c24 -41 11 -52 -58 -54 -30 -1 -62 -8
-72 -16 -15 -12 -15 -16 -1 -31 8 -9 15 -22 15 -28 0 -7 6 -12 14 -12 8 0 18
-9 21 -20 3 -11 13 -27 21 -35 21 -20 11 -32 -34 -40 -37 -6 -39 -8 -54 -66
l-16 -59 54 0 c54 0 74 -17 34 -27 -11 -3 -20 -9 -20 -14 0 -5 -9 -9 -20 -9
-25 0 -26 -29 -5 -70 14 -26 21 -30 60 -30 25 0 45 5 45 10 0 6 18 10 40 10
29 0 40 -4 40 -15 0 -8 -7 -15 -15 -15 -28 0 0 -33 31 -36 33 -4 63 -38 64
-73 0 -16 4 -21 15 -17 19 7 21 -30 3 -37 -9 -4 0 -16 22 -36 32 -27 35 -28
38 -10 4 22 15 25 30 7 11 -15 -2 -58 -18 -58 -22 0 -8 -26 20 -38 17 -8 28
-17 25 -21 -2 -5 2 -17 10 -27 10 -13 14 -15 15 -5 0 23 27 -6 33 -37 4 -15
15 -42 26 -59 17 -27 27 -33 57 -33 l36 0 -7 -36 c-4 -24 -2 -39 5 -44 8 -5
-5 -20 -35 -44 -27 -20 -51 -36 -54 -36 -4 0 -15 -24 -26 -52 -10 -29 -26 -61
-37 -71 -10 -10 -18 -22 -18 -27 0 -20 -39 -9 -46 12 l-7 23 -8 -23 c-5 -12
-13 -22 -19 -22 -16 0 -140 -129 -140 -145 0 -11 -12 -15 -40 -15 -36 0 -43
-4 -58 -31 -9 -18 -27 -41 -39 -52 -13 -11 -23 -27 -23 -34 0 -7 -5 -13 -11
-13 -6 0 -24 -12 -40 -27 -22 -22 -41 -29 -86 -33 -48 -4 -60 -9 -68 -27 -11
-26 -50 -31 -59 -8 -3 8 -16 15 -29 15 -14 0 -30 -7 -37 -15 -7 -8 -25 -15
-40 -15 -16 0 -30 -5 -32 -12 -2 -6 -14 3 -27 20 -26 37 -37 39 -71 12 -28
-22 -60 -26 -60 -8 0 6 -8 4 -19 -6 -11 -10 -28 -16 -38 -14 -10 2 -25 -5 -34
-16 -16 -20 -16 -20 -28 3 -10 18 -15 20 -27 10 -8 -6 -14 -18 -14 -26 0 -12
-7 -13 -27 -8 -37 9 -39 12 -20 32 15 17 11 18 -59 19 -43 0 -70 -3 -62 -7 8
-6 -3 -9 -29 -9 -24 0 -43 -4 -43 -10 0 -15 -17 -12 -35 6 -11 11 -35 18 -68
18 -29 1 -52 7 -55 14 -2 7 -10 12 -17 12 -8 0 -22 11 -33 25 -16 20 -29 25
-66 25 -25 0 -46 -5 -46 -10 0 -7 -19 -10 -45 -9 -25 2 -45 6 -45 11 0 4 7 8
16 8 9 0 14 6 11 13 -2 7 -24 12 -57 13 -38 1 -55 6 -62 17 -14 26 -27 20 -43
-15 -14 -32 -14 -32 -15 -7 0 15 -7 32 -15 39 -12 10 -13 15 -4 21 9 5 1 13
-24 25 -20 10 -37 24 -37 31 0 7 -12 15 -27 19 -16 3 -34 7 -40 10 -8 2 -13
-5 -13 -16 0 -11 -6 -20 -14 -20 -18 0 -39 26 -31 39 3 6 -3 16 -15 23 -11 7
-20 19 -20 26 0 10 -11 13 -40 10 -22 -2 -40 0 -40 5 0 4 -21 29 -47 55 -27
26 -53 56 -60 67 -12 20 -12 20 -32 -5 l-19 -24 -4 34 -3 35 -80 -1 c-65 -2
-72 0 -35 6 l45 7 -44 1 c-32 2 -53 10 -82 33 -29 23 -39 27 -39 15 0 -20 -4
-20 -39 -1 -16 8 -31 11 -35 8 -3 -4 -6 -1 -6 5 0 7 -7 12 -15 12 -16 0 -59
40 -68 64 -4 10 -18 16 -37 16 -19 0 -33 6 -37 16 -11 29 -49 60 -97 78 -26
10 -66 38 -90 63 -42 43 -47 45 -90 42 -46 -4 -50 -1 -49 39 1 6 -16 26 -37
42 -28 22 -48 30 -79 30 l-41 0 0 45 c0 33 -4 45 -15 45 -16 0 -65 46 -65 60
0 6 -18 10 -40 10 -29 0 -40 -4 -40 -15 0 -11 -11 -15 -40 -15 -22 0 -40 5
-40 10 0 6 -9 10 -20 10 -13 0 -20 -7 -20 -20 0 -13 7 -20 20 -20 11 0 20 -4
20 -10 0 -5 -9 -10 -20 -10 -11 0 -20 5 -20 10 0 6 -9 10 -20 10 -13 0 -20 7
-20 20 0 13 7 20 20 20 13 0 20 7 20 18 0 30 -21 42 -72 42 -37 0 -48 -4 -48
-16 0 -11 -8 -9 -35 12 -19 14 -35 23 -35 18 0 -4 -5 -3 -12 4 -7 7 -24 12
-38 12 -17 0 -42 14 -70 40 -36 34 -51 40 -89 42 l-46 1 55 7 55 7 -52 1 c-40
2 -53 6 -53 17 0 11 -11 15 -36 15 -27 0 -37 -5 -41 -20 -10 -37 -20 -21 -13
20 6 35 5 39 -11 37 -10 -2 -22 -6 -25 -10 -11 -11 -34 -8 -34 3 0 6 9 10 20
10 11 0 20 4 20 10 0 5 -9 15 -20 22 -11 7 -20 19 -20 27 0 10 -11 12 -45 9
-25 -3 -45 -2 -45 3 0 5 -7 9 -15 9 -22 0 -18 37 5 43 11 3 20 12 20 21 0 9
-8 16 -20 16 -13 0 -20 -7 -20 -20 0 -13 -7 -20 -19 -20 -10 0 -21 9 -24 20
-4 15 -14 20 -44 21 -21 1 -42 1 -46 0 -5 -1 -6 3 -3 8 9 13 -74 71 -101 71
-13 0 -23 5 -23 11 0 5 -4 8 -9 5 -5 -3 -11 1 -15 9 -3 9 -19 15 -41 15 -30 0
-35 3 -35 23 0 20 -5 23 -37 22 -25 0 -38 -6 -42 -18 -6 -16 -8 -16 -26 -3
-11 9 -27 16 -35 16 -8 0 -35 18 -60 40 -39 34 -42 39 -22 40 12 0 22 4 22 8
0 20 -28 32 -71 32 -38 0 -48 4 -52 20 -3 13 -14 20 -29 20 -16 0 -27 10 -38
33 -14 31 -18 32 -92 41 -43 4 -78 12 -78 16 0 12 -59 70 -71 70 -5 0 -9 9 -9
20 0 17 -7 20 -38 20 -29 0 -44 6 -60 25 -12 14 -22 28 -22 33 -1 13 -49 62
-62 62 -7 0 -24 18 -38 40 -13 22 -28 40 -32 40 -4 0 -8 18 -8 40 0 28 -4 40
-14 40 -8 0 -16 7 -20 15 -4 12 -25 15 -96 15 -89 0 -90 0 -90 25 0 14 -4 25
-10 25 -5 0 -10 19 -10 43 0 42 -26 87 -50 87 -6 0 -10 7 -10 15 0 8 -9 15
-20 15 -31 0 -60 36 -60 74 0 18 -7 39 -16 47 -9 7 -13 21 -10 33 6 25 -12 59
-21 38 -2 -7 -11 -19 -19 -26 -8 -8 -14 -31 -14 -50 0 -20 -4 -36 -10 -36 -5
0 -10 18 -10 40 0 22 5 40 10 40 17 0 11 39 -10 60 -15 15 -20 33 -20 69 0 53
-10 66 -50 66 -16 0 -28 8 -35 23 -5 12 -18 22 -27 22 -14 0 -18 8 -18 38 -1
41 -21 72 -64 94 -35 18 -58 76 -56 141 1 34 -3 47 -13 47 -16 0 -43 109 -33
135 3 9 0 18 -9 21 -8 3 -19 22 -26 42 -7 21 -15 39 -18 42 -12 9 -43 149 -36
160 4 7 3 22 -2 33 -6 12 -15 36 -20 52 -8 26 -14 30 -42 28 -18 0 -40 -8 -49
-16 -29 -25 -136 -77 -159 -77 -12 0 -23 -4 -25 -9 -1 -5 -19 -12 -38 -16 -93
-18 -157 -25 -174 -21 -10 3 -38 -2 -61 -10 -30 -10 -51 -11 -68 -5 -40 15
-208 42 -219 35 -7 -4 -8 -2 -4 4 4 8 0 12 -11 12 -18 0 -143 57 -153 70 -3 3
-19 12 -37 19 -18 7 -38 20 -45 28 -17 21 -85 63 -101 63 -7 0 -24 12 -38 26
-13 14 -40 34 -59 44 -20 10 -53 35 -75 55 -22 20 -56 49 -75 63 -35 27 -90
76 -159 143 -20 20 -68 76 -105 125 -38 49 -75 96 -82 104 -45 51 -74 89 -74
98 0 6 -6 15 -12 19 -16 10 -49 57 -73 103 -10 19 -21 37 -24 40 -21 17 -94
168 -121 250 -12 36 -25 70 -30 75 -7 9 -47 132 -71 220 -6 22 -15 51 -20 65
-19 53 -61 217 -66 258 -3 23 -9 42 -14 42 -5 0 -9 21 -9 46 0 25 -4 53 -9 63
-11 20 -26 227 -26 351 1 67 5 94 22 125 11 22 23 67 26 100 3 33 6 61 6 63 1
1 18 2 40 2 45 0 55 -19 44 -83 -3 -21 -1 -48 5 -60 6 -12 13 -71 16 -132 4
-97 32 -239 35 -177 1 12 6 22 11 22 6 0 10 10 10 21 0 35 23 101 37 106 7 3
20 20 29 38 9 21 29 39 55 50 21 10 39 24 39 30 0 7 12 15 28 18 15 3 40 9 55
13 34 8 77 -27 77 -63 0 -23 2 -22 35 14 21 23 33 44 30 54 -4 11 12 35 44 68
27 28 47 51 43 52 -4 0 4 5 17 10 16 6 28 6 35 -1 7 -7 5 -10 -5 -10 -8 0 -25
-20 -38 -46 -13 -25 -37 -56 -53 -70 -23 -18 -26 -24 -12 -24 10 0 25 7 35 16
10 9 25 14 34 12 15 -2 13 -7 -8 -29 l-26 -25 20 -18 c20 -16 22 -16 40 -1 10
10 17 22 16 27 -2 10 36 37 73 55 23 10 109 104 165 178 72 97 93 120 101 113
12 -12 -5 -52 -36 -86 -16 -18 -30 -37 -30 -42 0 -4 -14 -23 -31 -41 -37 -40
-92 -147 -84 -167 7 -18 64 -6 88 19 23 24 27 24 27 -1 0 -11 -6 -20 -14 -20
-9 0 -12 -7 -9 -19 3 -13 -1 -20 -12 -23 -20 -4 -45 -68 -45 -116 0 -18 -5
-42 -10 -53 -16 -28 -30 -113 -20 -119 5 -3 1 -21 -8 -40 -12 -25 -13 -35 -4
-38 17 -5 15 -87 -4 -124 -13 -25 -13 -32 -3 -39 8 -4 10 -12 5 -16 -5 -4 -11
-2 -13 5 -3 6 -9 12 -15 12 -10 0 -6 -90 13 -245 16 -137 19 -155 29 -155 6 0
10 -7 10 -15 0 -8 11 -22 25 -31 14 -9 25 -21 25 -27 0 -12 30 -47 41 -47 4 0
9 8 12 18 2 10 7 2 12 -21 9 -47 24 -43 41 9 8 21 16 47 20 56 3 9 20 20 38
24 17 4 47 22 66 40 19 19 38 34 42 34 4 0 18 10 31 23 103 96 108 100 133 88
19 -8 30 -7 59 10 23 14 35 17 35 9 0 -15 70 -7 79 9 8 13 89 17 100 6 22 -25
51 -137 46 -180 -5 -37 -2 -46 15 -55 11 -6 27 -25 36 -43 26 -49 42 -57 81
-41 37 16 95 18 121 5 9 -5 26 -12 37 -16 15 -5 16 -8 6 -14 -10 -6 -9 -10 4
-15 9 -3 24 -6 33 -6 9 0 26 -14 37 -30 11 -16 26 -30 33 -30 15 0 15 3 -2 45
-11 24 -21 35 -36 35 -12 0 -18 4 -15 10 4 6 -3 40 -15 76 -18 53 -20 68 -9
74 8 6 3 9 -16 12 -21 2 -34 12 -45 33 -8 17 -19 33 -23 36 -13 9 0 192 16
232 10 23 23 36 38 39 16 2 25 13 31 36 7 26 13 32 36 32 43 0 56 -13 42 -40
-9 -18 -9 -28 0 -46 8 -14 11 -41 7 -72 -6 -54 3 -82 20 -60 6 7 32 52 58 101
27 48 52 87 55 87 8 0 30 -62 30 -87 0 -12 -7 -23 -15 -27 -8 -3 -15 -17 -15
-31 0 -27 9 -32 27 -14 9 9 11 -12 10 -83 -2 -79 1 -99 16 -115 21 -24 22 -76
2 -161 -10 -41 -12 -69 -6 -80 8 -14 12 -9 26 26 10 23 29 51 43 63 23 17 27
18 34 4 5 -8 15 -15 23 -15 7 0 15 -6 18 -12 5 -14 47 113 47 141 0 10 6 25
13 35 11 16 15 10 26 -48 7 -36 17 -66 21 -66 4 0 12 15 17 33 5 17 15 31 21
29 7 -1 12 12 12 33 0 32 3 35 29 35 27 0 29 -3 35 -52 4 -28 10 -56 13 -61 3
-5 7 -26 9 -46 6 -70 26 -186 35 -201 30 -47 77 -160 77 -183 0 -37 9 -45 26
-21 9 12 11 23 5 29 -5 5 -9 23 -9 40 0 16 -7 48 -15 71 -15 43 -9 108 6 68 4
-10 8 -31 8 -45 1 -14 10 -44 21 -67 11 -22 20 -45 20 -51 0 -5 3 -11 8 -13 4
-1 20 -29 35 -60 16 -32 33 -58 38 -58 16 0 29 48 29 108 l0 57 20 -25 c11
-14 20 -31 20 -38 0 -7 4 -20 9 -30 6 -9 13 -39 16 -66 10 -78 25 -34 22 66
-1 59 2 91 11 100 9 9 12 8 12 -8 0 -11 -5 -25 -12 -32 -9 -9 -9 -12 0 -12 7
0 12 -7 12 -15 0 -9 6 -12 15 -9 11 5 15 23 16 68 1 53 2 57 10 31 5 -16 8
-54 7 -84 -1 -41 3 -57 16 -67 11 -7 17 -23 15 -41 -4 -47 0 -63 15 -63 18 0
29 33 52 158 10 56 22 102 26 102 4 0 8 -26 8 -57 l0 -57 20 22 c12 13 20 35
20 57 0 19 5 35 10 35 6 0 10 -19 10 -42 1 -38 2 -41 13 -23 17 28 16 348 -1
395 -17 46 -27 140 -13 120 6 -8 11 -10 11 -5 10 154 6 240 -10 230 -12 -8
-18 17 -35 154 -9 73 -21 134 -31 149 -9 14 -13 34 -10 47 8 33 -10 167 -24
175 -19 12 -31 306 -14 348 7 17 18 32 23 32 6 0 11 5 11 10 0 6 -6 10 -14 10
-26 0 -26 40 0 63 19 16 24 30 23 61 -1 28 -3 33 -6 16 -3 -14 -9 -29 -14 -34
-14 -15 -22 20 -14 61 5 28 9 33 16 22 8 -10 9 -4 7 23 -2 20 0 34 4 32 4 -3
8 19 8 48 0 29 3 64 7 78 l7 25 6 -25 c4 -14 7 25 7 85 -1 126 13 213 37 230
9 7 16 17 16 24 0 6 5 11 11 11 5 0 7 5 4 10 -8 13 35 150 46 150 5 0 9 11 9
25 0 14 5 25 10 25 6 0 10 15 10 34 0 19 7 42 17 51 10 10 12 19 6 23 -11 8
-5 82 7 82 4 0 11 16 14 35 4 20 11 33 17 30 5 -4 9 -2 9 4 0 5 -6 11 -12 14
-10 3 -9 12 4 38 9 19 24 60 33 91 10 31 26 65 36 74 10 9 26 39 36 67 10 27
30 63 45 79 15 16 40 52 56 79 16 28 33 50 37 49 5 -1 18 15 29 36 12 21 33
52 48 68 16 17 28 34 28 38 0 8 18 32 58 76 12 14 22 29 22 33 0 15 94 110
123 125 15 8 25 19 22 24 -3 5 4 11 14 15 11 3 42 28 70 55 27 26 58 51 69 54
10 4 31 19 45 34 24 26 58 56 122 106 19 15 50 26 88 30 31 4 57 12 57 17 0 5
7 9 16 9 8 0 12 5 9 10 -3 6 -3 10 2 10 4 0 18 3 31 6 16 5 22 2 22 -10 0 -10
-9 -17 -22 -17 l-23 -2 23 -4 c12 -2 22 -9 22 -14 0 -5 15 -9 34 -9 40 0 92
17 82 27 -4 4 17 13 46 19 66 15 197 50 221 59 13 5 17 2 17 -14 0 -12 -6 -21
-13 -21 -7 0 -23 -9 -35 -20 -12 -11 -31 -20 -43 -20 -25 0 -48 -26 -49 -54 0
-14 5 -17 23 -12 12 4 29 9 39 11 34 8 79 37 75 48 -3 9 13 12 56 11 48 -1 67
3 96 23 20 13 48 27 64 30 15 3 27 8 27 12 0 3 15 12 33 19 17 7 41 18 52 25
59 33 92 47 112 47 13 0 23 5 23 10 0 6 4 10 10 10 5 0 26 12 47 26 21 14 51
28 66 31 16 3 46 23 68 44 23 22 51 39 64 39 12 0 28 7 35 15 7 8 21 15 31 15
12 0 19 7 19 19 0 18 39 37 68 32 7 -1 12 2 11 6 -4 23 3 33 24 33 12 0 30 9
40 20 9 11 24 20 32 20 8 0 15 7 15 15 0 8 12 17 28 21 15 3 43 14 63 25 20
10 43 19 51 19 23 0 68 24 68 36 0 12 48 29 57 21 7 -8 -9 -57 -18 -57 -5 0
-9 -5 -9 -11 0 -6 10 -9 23 -7 13 2 29 -2 36 -9 14 -16 33 -13 39 5 2 7 -7 16
-20 21 l-23 9 25 10 c72 28 98 41 104 51 4 6 15 11 25 11 10 0 22 8 25 18 14
35 31 62 41 62 5 0 4 4 -4 9 -11 7 -9 11 9 21 28 15 48 -1 25 -20 -35 -29 -12
-50 56 -50 35 0 57 18 27 22 -7 0 10 4 37 8 l50 7 -52 1 c-30 1 -53 -2 -53 -8
0 -13 -27 -13 -35 -1 -9 16 37 51 66 51 40 0 59 10 59 31 0 12 13 26 35 36 19
9 35 21 35 26 0 5 18 6 40 2 40 -7 59 9 23 18 -15 4 -15 5 -2 6 9 0 22 -6 29
-14 16 -19 34 -19 27 0 -5 10 4 16 31 20 20 3 51 13 67 21 17 8 53 15 80 15
45 1 122 24 135 40 12 15 71 39 111 45 24 3 54 13 67 21 12 7 27 11 33 7 6 -3
22 -3 37 1 l27 7 -35 13 -35 12 40 8 c27 6 40 4 43 -4 2 -6 11 -11 19 -11 10
0 13 6 9 16 -8 21 20 43 55 44 15 0 32 6 38 14 6 8 36 17 66 21 31 3 65 15 80
27 15 12 41 21 58 20 17 0 36 6 42 14 6 8 26 17 45 20 19 3 51 14 72 25 20 10
46 19 58 19 15 0 20 6 20 29 0 27 3 29 46 33 25 2 51 0 58 -4 16 -9 76 12 76
27 0 5 14 19 30 30 16 11 30 24 30 29 0 5 9 1 20 -9 19 -17 21 -17 38 -2 12
11 36 17 63 17 25 0 60 9 82 20 22 12 56 20 84 20 55 0 113 19 113 37 0 7 10
13 23 13 12 0 29 4 37 10 9 6 17 5 21 -2 5 -8 17 -7 41 5 18 9 34 12 36 7 2
-6 21 -10 42 -10 28 0 41 -6 53 -22 13 -20 17 -21 29 -9 11 11 11 14 0 18 -10
4 -9 9 4 24 12 14 31 19 65 19 41 0 48 -3 52 -22 l4 -23 8 23 c7 20 14 22 76
22 55 0 69 3 69 15 0 11 11 15 40 15 29 0 40 -4 40 -15 0 -11 11 -15 40 -15
33 0 40 3 40 20 0 17 7 20 40 20 33 0 40 -3 40 -20 0 -11 4 -20 8 -20 14 0 32
23 32 42 0 10 9 23 20 30 11 7 20 23 20 35 0 22 4 23 80 23 79 0 80 0 80 -25
0 -22 4 -25 40 -25 29 0 40 4 40 15 0 10 10 15 34 15 56 0 66 8 66 51 0 32 3
39 20 39 17 0 20 -7 20 -40z m-77 -37 c-13 -2 -33 -2 -45 0 -13 2 -3 4 22 4
25 0 35 -2 23 -4z m-763 -103 c0 -11 -4 -20 -10 -20 -5 0 -10 9 -10 20 0 11 5
20 10 20 6 0 10 -9 10 -20z m1537 -442 c-2 -13 -4 -3 -4 22 0 25 2 35 4 23 2
-13 2 -33 0 -45z m-3982 -328 c3 -5 1 -10 -6 -10 -7 0 -21 -7 -31 -17 -10 -9
-21 -14 -24 -11 -6 7 35 48 47 48 4 0 11 -4 14 -10z m-175 -74 c0 -2 -7 -6
-15 -10 -8 -3 -15 -1 -15 4 0 6 7 10 15 10 8 0 15 -2 15 -4z m950 -65 c0 -5
-7 -11 -15 -15 -9 -3 -15 0 -15 9 0 8 7 15 15 15 8 0 15 -4 15 -9z m165 -31
c20 -1 20 -1 1 -15 -25 -19 -36 -19 -36 0 0 8 -5 15 -11 15 -5 0 -7 5 -3 11 4
8 9 8 17 0 6 -6 20 -11 32 -11z m-1287 3 c-10 -2 -26 -2 -35 0 -10 3 -2 5 17
5 19 0 27 -2 18 -5z m959 -89 c-3 -3 -12 -4 -19 -1 -8 3 -5 6 6 6 11 1 17 -2
13 -5z m103 -6 c17 -11 22 -10 29 1 5 7 14 10 20 7 27 -17 6 -26 -59 -26 -38
0 -70 4 -70 9 0 8 10 12 53 20 4 0 16 -5 27 -11z m-292 -5 c18 -4 20 -8 10
-14 -29 -19 -72 -7 -51 14 8 8 12 8 41 0z m-108 -32 c0 -18 -40 -38 -65 -33
-36 6 -31 30 8 35 17 2 38 5 45 5 6 1 12 -2 12 -7z m198 -11 c-7 -11 -22 -20
-33 -20 -19 1 -19 2 4 20 30 26 45 26 29 0z m-58 -25 c0 -14 -45 -25 -78 -18
l-37 8 45 6 c69 9 70 9 70 4z m-192 -124 c29 -25 28 -31 -7 -31 -33 0 -46 13
-37 35 7 19 16 18 44 -4z m-1934 -176 c-22 -16 -44 -19 -44 -6 0 9 21 18 49
20 10 1 9 -4 -5 -14z m-114 -25 c-8 -5 -28 -10 -45 -10 -23 0 -27 3 -15 10 8
5 29 10 45 10 23 0 27 -3 15 -10z m5190 -142 c0 -5 -4 -8 -10 -8 -5 0 -10 10
-10 23 0 18 2 19 10 7 5 -8 10 -18 10 -22z m-80 -18 c0 -5 -4 -10 -10 -10 -5
0 -10 5 -10 10 0 6 5 10 10 10 6 0 10 -4 10 -10z m60 -60 c0 -5 -4 -10 -10
-10 -5 0 -10 5 -10 10 0 6 5 10 10 10 6 0 10 -4 10 -10z m-2083 -496 c-3 -3
-12 -4 -19 -1 -8 3 -5 6 6 6 11 1 17 -2 13 -5z m2003 -54 c0 -13 -7 -20 -20
-20 -23 0 -26 10 -8 28 18 18 28 15 28 -8z m88 -80 c-13 -20 -28 -27 -28 -12
0 10 22 32 32 32 5 0 3 -9 -4 -20z m-2788 -755 c0 -8 -4 -15 -10 -15 -5 0 -10
7 -10 15 0 8 5 15 10 15 6 0 10 -7 10 -15z m-6344 -880 c-20 -30 -36 -32 -36
-5 0 13 7 20 20 20 12 0 20 7 21 18 0 10 2 12 6 4 3 -7 -2 -24 -11 -37z m-776
-69 c0 -3 -4 -8 -10 -11 -5 -3 -10 -1 -10 4 0 6 5 11 10 11 6 0 10 -2 10 -4z
m731 -13 c-5 -10 -20 -29 -33 -44 -44 -47 -78 -98 -78 -114 0 -10 -7 -15 -17
-13 -22 4 -29 28 -9 28 9 0 17 3 17 8 5 26 8 50 11 71 4 38 48 78 86 80 28 1
31 -1 23 -16z m179 -103 c0 -11 -7 -20 -15 -20 -13 0 -13 3 -3 20 7 11 14 20
15 20 2 0 3 -9 3 -20z m100 -155 c0 -15 -18 -30 -27 -22 -2 3 -2 15 2 26 7 23
25 19 25 -4z m2100 -560 c4 -5 11 -28 15 -50 7 -36 6 -39 -8 -25 -10 10 -18
39 -20 80 -3 36 -2 52 0 35 3 -16 8 -34 13 -40z m69 -212 c-1 -33 -2 -35 -8
-13 -4 14 -6 31 -3 38 8 22 12 13 11 -25z m-1902 11 c-3 -3 -12 -4 -19 -1 -8
3 -5 6 6 6 11 1 17 -2 13 -5z m993 -234 c0 -13 -5 -18 -14 -14 -8 3 -12 12 -9
20 8 21 23 17 23 -6z m9213 -7 c-13 -2 -33 -2 -45 0 -13 2 -3 4 22 4 25 0 35
-2 23 -4z m-1517 -1283 c8 0 14 -5 14 -11 0 -6 7 -9 15 -6 20 8 31 -14 14 -27
-16 -12 -26 -116 -12 -116 5 0 15 -23 22 -51 9 -35 20 -53 32 -56 11 -3 22
-16 25 -29 3 -13 9 -24 13 -24 7 0 41 -64 41 -75 0 -3 -9 -5 -21 -5 -16 0 -19
-4 -14 -17 4 -10 10 -28 12 -40 3 -11 13 -23 23 -26 13 -3 17 -1 13 10 -4 11
0 14 13 11 16 -3 19 -12 19 -53 0 -28 5 -59 12 -70 13 -24 -4 -55 -30 -55 -8
0 -17 -4 -19 -8 -1 -4 -20 -18 -41 -31 -35 -22 -41 -22 -85 -11 -55 15 -75 28
-68 45 2 7 -5 28 -17 46 -20 32 -22 32 -25 12 -2 -13 -9 -23 -16 -23 -20 0
-27 12 -15 27 7 7 13 30 15 51 1 20 5 52 9 70 5 20 3 38 -4 46 -9 11 -9 19 0
34 7 11 9 27 4 38 -4 11 -7 38 -6 62 2 29 -2 42 -11 42 -9 1 -7 5 5 14 22 17
22 34 -3 54 -18 15 -19 21 -8 62 6 25 22 53 34 62 12 10 25 30 29 45 4 16 10
22 12 16 3 -7 11 -13 19 -13z m-163 -602 c-2 -5 -8 -8 -14 -8 -11 0 -12 33 -2
44 8 8 23 -25 16 -36z m-2043 -287 c0 -9 -24 -21 -41 -21 -16 0 -10 18 9 23
28 8 32 7 32 -2z m-78 -46 c0 -5 -5 -11 -11 -13 -6 -2 -11 4 -11 13 0 9 5 15
11 13 6 -2 11 -8 11 -13z m-6262 -74 c0 -21 40 -31 132 -31 31 0 60 -5 64 -11
3 -6 21 -17 38 -24 45 -18 299 -4 324 18 10 9 35 17 57 19 22 1 55 11 73 21
52 31 58 21 84 -133 6 -36 13 -67 17 -70 16 -13 30 -62 41 -135 6 -44 15 -84
20 -89 6 -6 10 -20 10 -32 0 -13 14 -75 30 -139 17 -64 30 -126 30 -137 0 -28
22 -88 32 -88 4 0 8 -22 8 -49 0 -33 5 -51 14 -54 8 -3 20 -24 26 -46 6 -22
17 -47 25 -55 8 -8 15 -19 15 -25 0 -6 4 -11 9 -11 8 0 31 -52 31 -71 0 -5 -9
-9 -20 -9 -20 0 -20 0 0 -32 11 -18 20 -41 20 -50 0 -10 9 -27 20 -38 11 -11
20 -24 20 -30 0 -5 6 -10 14 -10 7 0 19 -14 26 -31 7 -17 30 -50 51 -72 21
-23 39 -45 39 -49 0 -5 7 -8 15 -8 8 0 15 -7 15 -16 0 -9 11 -25 25 -36 13
-10 24 -22 23 -26 -4 -16 14 -52 26 -52 8 0 19 -7 26 -15 10 -12 9 -15 -6 -15
-14 -1 -9 -10 24 -38 23 -20 42 -44 42 -53 0 -10 15 -21 39 -29 36 -12 65 -40
41 -40 -18 0 -11 -20 15 -42 14 -12 25 -27 25 -34 0 -19 37 -37 43 -21 2 6 12
-3 21 -22 10 -19 27 -43 37 -54 10 -12 19 -33 19 -48 0 -19 12 -36 44 -63 24
-20 51 -36 60 -36 8 0 19 -6 23 -14 4 -7 17 -18 28 -24 12 -6 28 -34 39 -66
15 -45 24 -56 41 -56 12 0 31 -11 43 -25 12 -14 26 -25 32 -25 5 0 10 -9 10
-19 0 -12 21 -35 50 -58 43 -33 49 -43 50 -75 0 -35 2 -38 30 -38 28 0 30 -2
30 -40 0 -36 2 -40 26 -40 24 0 25 -3 24 -42 -3 -61 -2 -65 16 -82 9 -10 33
-16 59 -16 24 0 47 -5 50 -10 4 -6 3 -9 -2 -8 -9 3 -13 -5 -13 -28 0 -8 4 -13
9 -10 10 6 43 -27 39 -40 -5 -19 14 -53 33 -59 15 -5 17 -10 9 -20 -8 -10 -1
-20 29 -45 23 -17 40 -34 40 -38 -1 -4 -1 -19 0 -34 1 -22 6 -28 24 -28 47 0
65 -11 59 -33 -3 -12 -11 -26 -19 -30 -8 -5 -13 -28 -13 -62 0 -53 1 -55 28
-55 35 0 53 -41 45 -100 -7 -48 11 -88 45 -101 13 -5 29 -24 37 -43 8 -18 23
-36 35 -39 19 -5 29 -37 11 -37 -5 0 0 -18 12 -40 16 -30 28 -40 46 -40 20 0
22 -3 13 -12 -10 -10 -17 -10 -32 0 -11 6 -26 12 -34 12 -8 0 -16 9 -18 20 -3
18 -4 17 -15 -6 -10 -21 -9 -28 8 -45 10 -10 19 -22 19 -25 0 -11 55 -64 66
-64 20 0 44 -47 44 -85 0 -28 -4 -35 -20 -35 -16 0 -20 7 -20 30 0 23 -4 30
-20 30 -11 0 -20 5 -20 10 0 6 -9 10 -20 10 -11 0 -20 -4 -20 -10 0 -5 9 -10
20 -10 16 0 20 -7 20 -30 0 -20 5 -30 15 -30 9 0 18 -7 21 -15 4 -9 19 -15 40
-15 18 0 54 -10 78 -22 41 -20 45 -25 48 -62 2 -34 7 -42 26 -44 26 -4 52 -57
52 -108 0 -30 4 -34 40 -45 36 -11 40 -15 40 -46 0 -33 1 -33 48 -34 26 -1 37
-4 24 -6 -34 -7 -72 -50 -72 -82 0 -24 6 -30 40 -41 22 -7 40 -19 40 -27 0 -9
13 -13 40 -13 33 0 40 -3 40 -20 0 -17 -7 -20 -40 -20 -38 0 -40 -2 -40 -29 0
-21 6 -32 19 -36 11 -3 23 -14 26 -24 3 -11 15 -21 25 -24 21 -5 26 -36 14
-96 -6 -28 -10 -31 -45 -31 -22 0 -39 5 -39 10 0 6 -18 10 -40 10 -38 0 -40 2
-40 31 0 20 -4 29 -12 27 -19 -7 -21 -34 -3 -51 8 -9 15 -23 15 -31 0 -12 10
-16 40 -16 22 0 40 -4 40 -10 0 -14 78 -12 82 2 3 7 11 9 24 3 18 -7 17 -8 -6
-15 -14 -5 -42 -8 -64 -9 -27 -1 -50 -10 -77 -32 l-39 -31 0 26 c0 17 -6 26
-15 26 -18 0 -65 43 -65 60 0 5 -4 10 -9 10 -5 0 -23 3 -40 6 -24 5 -31 3 -31
-10 0 -10 -8 -16 -22 -16 -12 0 -18 -3 -15 -7 4 -3 20 -6 37 -5 16 0 32 -4 35
-9 4 -5 15 -9 26 -9 10 0 19 -4 19 -10 0 -5 9 -10 20 -10 15 0 20 -7 20 -26 0
-26 26 -61 37 -50 3 3 25 -10 49 -29 28 -23 53 -35 74 -35 37 0 93 -27 85 -40
-12 -19 -45 -11 -45 10 0 17 -7 20 -47 20 -47 0 -113 -18 -113 -31 0 -4 27
-15 60 -25 51 -16 61 -24 70 -50 6 -17 8 -38 4 -47 -4 -11 0 -19 10 -23 9 -3
16 -14 16 -24 0 -10 9 -22 20 -25 14 -4 20 -15 20 -36 0 -28 2 -30 32 -27 18
2 33 -2 35 -9 3 -9 -7 -13 -30 -13 -20 0 -37 5 -39 10 -2 6 -29 14 -60 17 -49
5 -56 3 -60 -13 -4 -21 79 -94 107 -94 27 0 55 -38 55 -75 l0 -35 -50 0 c-41
0 -54 -5 -72 -25 -25 -28 -38 -32 -38 -10 0 11 -11 15 -40 15 -29 0 -40 -4
-40 -15 0 -12 -17 -15 -95 -15 -59 0 -95 -4 -95 -10 0 -6 7 -13 15 -16 11 -5
15 -22 15 -69 0 -58 2 -64 23 -67 18 -2 23 -10 25 -40 3 -33 0 -38 -17 -38
-17 0 -21 -6 -21 -32 0 -18 -3 -43 -6 -55 -6 -21 -3 -23 35 -23 37 0 41 -3 41
-24 0 -13 -5 -26 -11 -28 -6 -2 12 -14 40 -28 28 -13 51 -27 51 -31 0 -4 11
-10 25 -13 14 -4 25 -13 25 -21 0 -8 7 -15 15 -15 8 0 15 -5 15 -11 0 -6 7 -9
15 -5 10 4 15 -1 15 -14 0 -11 -7 -20 -15 -20 -8 0 -15 -4 -15 -9 0 -12 59
-71 71 -71 5 0 9 -7 9 -15 0 -12 -16 -15 -80 -15 -47 0 -80 -4 -80 -10 0 -15
-77 -12 -83 3 -3 6 -3 -5 0 -25 l6 -38 -42 0 c-23 0 -41 -5 -41 -11 0 -8 24
-9 80 -4 l80 7 0 -26 c0 -17 5 -26 16 -26 9 0 14 -6 11 -12 -2 -9 -20 -12 -55
-10 -50 4 -52 3 -52 -22 0 -14 -8 -29 -17 -35 -17 -9 -17 -10 0 -16 37 -15 7
-64 -40 -65 -13 0 -23 -4 -23 -10 0 -6 -47 -10 -120 -10 l-120 0 0 -30 c0 -16
-4 -30 -10 -30 -5 0 -10 18 -10 40 l0 40 50 0 c47 0 50 2 50 25 0 23 4 25 40
25 36 0 40 -2 40 -25 0 -22 4 -25 35 -25 22 0 44 8 57 20 l22 20 -22 20 c-18
17 -35 20 -117 20 -58 0 -103 5 -115 12 -16 10 -24 10 -40 0 -11 -6 -29 -12
-40 -12 -14 0 -20 -7 -20 -24 0 -13 -7 -26 -15 -30 -11 -4 -15 -20 -15 -56 0
-47 -2 -50 -25 -50 -22 0 -25 -4 -25 -40 0 -22 4 -40 9 -40 12 0 71 59 71 71
0 5 5 9 10 9 15 0 12 -70 -4 -86 -16 -16 -86 -19 -86 -4 0 6 -18 10 -40 10
-33 0 -40 -3 -40 -20 0 -21 -33 -60 -50 -60 -5 0 -10 -18 -10 -40 0 -38 -2
-40 -30 -40 -17 0 -39 -9 -50 -20 -27 -27 -27 -80 0 -80 13 0 24 10 30 26 7
19 16 25 33 22 20 -3 22 -8 18 -53 -3 -51 -10 -70 -18 -47 -8 20 -38 14 -61
-13 -12 -14 -22 -30 -22 -35 0 -6 -16 -10 -36 -10 -34 0 -83 -21 -112 -47 -18
-17 -27 -16 -42 2 -7 8 -26 15 -42 15 -24 0 -28 3 -19 13 8 10 7 21 -2 41 -10
23 -17 27 -43 24 -29 -3 -31 -2 -23 19 5 13 4 25 -1 28 -6 4 -10 -1 -10 -9 0
-9 -5 -16 -11 -16 -6 0 -9 9 -6 20 4 15 -6 29 -39 56 -24 20 -44 42 -44 49 0
6 -9 20 -20 30 -11 10 -20 24 -20 32 0 7 -4 13 -9 13 -8 0 -91 106 -91 116 0
11 -94 134 -102 134 -4 0 -8 4 -8 9 0 5 -36 58 -81 118 -45 59 -85 117 -89
128 -5 11 -23 35 -39 54 -17 18 -31 36 -31 40 0 3 -11 19 -25 35 -14 16 -25
32 -25 35 0 3 -15 22 -33 42 -17 19 -54 69 -82 110 -27 41 -52 76 -56 79 -7 5
-70 92 -141 195 -23 33 -84 116 -136 184 -51 69 -98 134 -104 146 -6 11 -14
22 -17 25 -3 3 -33 41 -66 85 -33 44 -62 82 -65 85 -3 3 -18 25 -35 50 -16 25
-35 52 -43 60 -7 8 -40 51 -73 95 -34 44 -73 96 -89 115 -15 19 -56 71 -91
115 -35 44 -68 85 -73 91 -6 7 -20 24 -31 40 -11 15 -39 48 -62 73 -24 26 -43
49 -43 53 0 4 -6 13 -13 20 -7 7 -41 47 -76 88 -99 118 -199 230 -294 333 -32
34 -73 81 -90 104 -18 23 -38 43 -44 43 -7 0 -13 4 -13 8 0 5 -63 73 -140 151
-77 78 -140 146 -140 151 0 6 -4 10 -9 10 -19 0 -161 133 -161 151 0 7 -3 10
-6 7 -7 -7 -44 28 -44 41 0 5 -9 12 -20 16 -11 3 -19 9 -18 13 4 15 -38 72
-62 84 -14 7 -29 19 -33 25 -4 7 -15 13 -22 13 -41 0 13 202 56 213 11 3 20
19 24 41 6 28 12 36 29 36 24 0 60 59 50 83 -2 7 4 22 16 32 11 10 20 24 20
32 0 9 13 13 40 13 38 0 52 12 30 25 -14 9 -12 55 3 55 6 0 30 18 52 40 22 21
48 39 58 40 13 0 17 9 17 40 0 22 5 40 10 40 6 0 10 7 10 15 0 8 5 15 10 15 6
0 10 11 10 25 0 14 4 25 8 25 15 0 52 90 52 125 0 19 5 35 10 35 6 0 10 18 10
39 0 25 5 41 15 45 8 3 15 15 15 26 0 32 29 82 45 76 22 -8 49 18 43 42 -6 21
18 52 44 56 7 1 28 10 46 21 33 20 41 38 21 51 -6 3 -9 19 -5 35 3 15 1 31 -5
35 -13 7 8 34 27 34 20 0 42 89 31 123 -7 20 -6 33 4 45 8 9 19 26 25 37 6 11
22 40 36 65 32 58 49 104 58 160 11 61 14 73 23 88 5 7 2 14 -7 18 -18 7 -18
60 1 75 19 17 16 57 -7 86 -11 14 -20 31 -20 37 0 6 5 4 11 -4 8 -11 12 -12
16 -2 2 6 13 12 22 12 21 0 54 33 44 43 -3 4 -16 7 -27 7 -33 0 -71 24 -71 43
0 10 -7 22 -15 27 -12 8 -11 11 8 16 12 4 22 10 22 15 0 5 7 9 15 9 23 0 2 43
-29 58 -15 8 -30 20 -33 28 -9 23 17 74 38 74 12 0 16 5 13 14 -3 9 3 17 15
21 12 4 21 15 21 27 0 17 -4 19 -27 14 -86 -19 -93 -19 -93 0 0 11 -9 25 -20
32 -24 15 -26 42 -3 42 9 0 13 3 10 7 -4 3 -2 12 4 19 9 11 5 16 -15 24 -31
12 -34 26 -5 35 15 5 18 10 10 18 -8 8 -14 8 -23 -1 -9 -9 -16 -6 -30 16 -20
30 -23 47 -8 37 6 -3 10 -1 10 4 0 6 10 11 22 11 21 0 58 26 58 41 0 4 -20 18
-45 30 -56 28 -58 47 -5 55 24 4 40 12 40 20 0 8 6 14 13 14 7 0 18 9 25 20 7
11 17 20 23 20 5 0 28 9 51 20 22 11 44 17 48 15 7 -4 40 37 40 49 0 13 -34
13 -81 1 -55 -15 -79 -8 -79 21 0 20 20 28 72 25 42 -2 48 0 48 19 0 17 6 20
40 20 32 0 40 -4 40 -19z m1148 -99 c2 -7 -3 -12 -12 -12 -9 0 -16 7 -16 16 0
17 22 14 28 -4z m132 -182 c0 -5 -4 -10 -10 -10 -5 0 -10 5 -10 10 0 6 5 10
10 10 6 0 10 -4 10 -10z m6420 -165 c0 -8 -4 -15 -10 -15 -5 0 -10 7 -10 15 0
8 5 15 10 15 6 0 10 -7 10 -15z m110 -40 c0 -8 -4 -15 -10 -15 -5 0 -10 7 -10
15 0 8 5 15 10 15 6 0 10 -7 10 -15z m-6210 -65 c0 -22 -4 -40 -10 -40 -5 0
-10 18 -10 40 0 22 5 40 10 40 6 0 10 -18 10 -40z m6199 -58 c-20 -66 -26
-138 -12 -151 16 -14 17 -41 3 -41 -6 0 -13 7 -16 15 -5 12 -10 13 -20 4 -7
-6 -18 -8 -24 -4 -12 8 -13 52 -1 59 5 3 9 22 8 41 -1 19 6 42 16 52 9 11 14
27 11 40 -3 11 2 36 12 54 l17 34 9 -33 c6 -21 5 -46 -3 -70z m61 -106 c0 -24
-23 -41 -41 -30 -13 8 -11 42 4 47 26 11 37 6 37 -17z m467 2 c-3 -8 -6 -5 -6
6 -1 11 2 17 5 13 3 -3 4 -12 1 -19z m-587 -173 c0 -14 -4 -25 -10 -25 -11 0
-14 33 -3 43 11 11 13 8 13 -18z m-4395 -745 c-3 -5 -14 -10 -23 -9 -14 0 -13
2 3 9 27 11 27 11 20 0z m3875 -884 c0 -3 -4 -8 -10 -11 -5 -3 -10 -1 -10 4 0
6 5 11 10 11 6 0 10 -2 10 -4z m-3884 -1947 c10 -17 -13 -36 -27 -22 -12 12
-4 33 11 33 5 0 12 -5 16 -11z m-59 -55 c-3 -3 -12 -4 -19 -1 -8 3 -5 6 6 6
11 1 17 -2 13 -5z m73 -113 c0 -29 5 -41 18 -44 16 -4 16 -4 0 -12 -33 -14
-48 1 -48 50 0 33 4 45 15 45 11 0 15 -11 15 -39z m10 -481 c0 -5 -4 -10 -10
-10 -5 0 -10 5 -10 10 0 6 5 10 10 10 6 0 10 -4 10 -10z m28 -172 c18 -18 15
-28 -8 -28 -13 0 -20 7 -20 20 0 23 10 26 28 8z m72 -37 c0 -6 -4 -13 -10 -16
-5 -3 -10 1 -10 9 0 9 5 16 10 16 6 0 10 -4 10 -9z m0 -81 c0 -5 -4 -10 -10
-10 -5 0 -10 5 -10 10 0 6 5 10 10 10 6 0 10 -4 10 -10z m-379 -330 c28 0 39
-4 39 -15 0 -11 -11 -15 -39 -15 -29 0 -41 -5 -44 -17 -3 -10 -5 2 -5 27 0 25
2 39 5 33 2 -8 22 -13 44 -13z m-21 -850 c0 -5 -4 -10 -10 -10 -5 0 -10 5 -10
10 0 6 5 10 10 10 6 0 10 -4 10 -10z m-173 -32 c-3 -8 -6 -5 -6 6 -1 11 2 17
5 13 3 -3 4 -12 1 -19z m-237 -68 c0 -5 -6 -10 -14 -10 -8 0 -18 5 -21 10 -3
6 3 10 14 10 12 0 21 -4 21 -10z m-150 -79 c0 -12 -29 -23 -41 -15 -18 10 -9
24 16 24 14 0 25 -4 25 -9z m-442 -189 c8 -13 10 -22 4 -22 -13 0 -42 28 -42
42 0 15 22 4 38 -20z m82 -112 c0 -5 -4 -10 -10 -10 -5 0 -10 5 -10 10 0 6 5
10 10 10 6 0 10 -4 10 -10z m7380 -23234 c0 -2 -30 -22 -67 -45 -45 -27 -58
-32 -38 -15 50 43 105 75 105 60z m831 -1395 c-40 -46 -65 -65 -107 -81 -36
-13 -61 -17 -71 -12 -12 7 -6 14 28 34 85 49 164 99 178 113 8 8 17 13 19 10
3 -2 -19 -31 -47 -64z"/>
<path d="M18898 40233 c12 -2 32 -2 45 0 12 2 2 4 -23 4 -25 0 -35 -2 -22 -4z"/>
<path d="M19140 40198 l0 -41 30 29 c38 37 38 54 0 54 -29 0 -30 -2 -30 -42z"/>
<path d="M19618 39833 c12 -2 32 -2 45 0 12 2 2 4 -23 4 -25 0 -35 -2 -22 -4z"/>
<path d="M19640 39752 c0 -10 22 -32 32 -32 4 0 8 9 8 20 0 13 -7 20 -20 20
-11 0 -20 -4 -20 -8z"/>
<path d="M16458 39593 c-35 -5 -36 -21 -1 -29 27 -7 54 4 61 24 4 12 -8 13
-60 5z"/>
<path d="M16240 39520 c0 -5 4 -10 9 -10 6 0 13 5 16 10 3 6 -1 10 -9 10 -9 0
-16 -4 -16 -10z"/>
<path d="M16156 39504 c-4 -11 0 -15 16 -12 12 2 23 9 26 16 6 18 -35 15 -42
-4z"/>
<path d="M16466 39471 c-13 -5 -16 -10 -8 -15 11 -6 52 9 52 19 0 7 -22 5 -44
-4z"/>
<path d="M16130 39428 l-22 -18 21 0 c12 0 30 8 41 18 19 17 19 18 1 18 -11 0
-29 -8 -41 -18z"/>
<path d="M16200 39425 c-22 -13 -23 -14 -5 -14 11 0 31 6 45 14 22 13 23 14 5
14 -11 0 -31 -6 -45 -14z"/>
<path d="M16135 39390 c-19 -8 -19 -9 2 -9 12 -1 25 4 28 9 7 12 -2 12 -30 0z"/>
<path d="M15955 39379 c-9 -13 -8 -13 33 -27 27 -9 39 -9 60 3 26 15 26 15
-21 9 -41 -5 -46 -4 -41 10 7 18 -20 23 -31 5z"/>
<path d="M16800 39370 c0 -5 11 -10 24 -10 16 0 23 -5 22 -16 0 -9 7 -18 17
-19 28 -5 20 28 -10 43 -33 15 -53 16 -53 2z"/>
<path d="M16180 39344 c-14 -8 -35 -14 -47 -14 -12 0 -25 -5 -28 -11 -5 -7 9
-10 41 -9 27 2 57 -1 67 -5 9 -4 31 -2 47 5 17 7 48 13 70 14 44 2 55 9 45 26
-9 15 -164 10 -195 -6z"/>
<path d="M16000 39290 c-28 -9 -28 -10 18 -16 23 -3 32 0 30 8 -6 16 -18 18
-48 8z"/>
<path d="M16075 39290 c3 -5 11 -10 16 -10 6 0 7 5 4 10 -3 6 -11 10 -16 10
-6 0 -7 -4 -4 -10z"/>
<path d="M15866 39269 c-32 -5 -67 -15 -76 -24 -9 -8 -26 -15 -38 -15 -26 0
-72 -20 -72 -32 0 -5 -9 -4 -20 2 -20 11 -67 4 -56 -7 3 -4 1 -12 -5 -19 -15
-18 65 -7 118 17 23 11 50 19 60 19 10 0 31 7 46 15 15 8 49 15 75 16 46 2 72
13 72 30 0 10 -22 10 -104 -2z"/>
<path d="M19260 39240 c0 -22 5 -40 10 -40 6 0 10 -12 10 -26 0 -23 3 -25 38
-22 34 3 37 6 37 33 0 27 -3 30 -37 33 -35 3 -38 6 -38 33 0 16 -4 29 -10 29
-5 0 -10 -18 -10 -40z"/>
<path d="M19230 39160 c0 -29 4 -40 15 -40 11 0 15 11 15 40 0 29 -4 40 -15
40 -11 0 -15 -11 -15 -40z"/>
<path d="M15853 39155 c-13 -12 -23 -25 -23 -28 0 -11 58 24 64 38 8 22 -16
16 -41 -10z"/>
<path d="M15416 39134 c-11 -8 -16 -14 -10 -14 13 0 39 18 34 24 -3 2 -14 -2
-24 -10z"/>
<path d="M15750 39130 c-8 -5 -32 -10 -53 -10 -24 0 -36 -4 -32 -10 10 -16
115 3 115 21 0 12 -11 11 -30 -1z"/>
<path d="M18990 39130 c0 -5 5 -10 10 -10 6 0 10 5 10 10 0 6 -4 10 -10 10 -5
0 -10 -4 -10 -10z"/>
<path d="M19200 39080 c0 -22 5 -40 10 -40 6 0 10 18 10 40 0 22 -4 40 -10 40
-5 0 -10 -18 -10 -40z"/>
<path d="M15600 39090 c0 -5 5 -10 11 -10 5 0 7 5 4 10 -3 6 -8 10 -11 10 -2
0 -4 -4 -4 -10z"/>
<path d="M15565 39030 c11 -5 34 -9 50 -9 23 -1 26 2 15 9 -8 5 -31 9 -50 9
-29 0 -31 -2 -15 -9z"/>
<path d="M19016 38964 c-7 -19 2 -37 15 -29 5 4 9 -5 9 -19 0 -24 3 -26 50
-26 l50 0 0 35 0 35 -50 0 c-27 0 -50 5 -50 10 0 16 -17 12 -24 -6z"/>
<path d="M19060 38840 c0 -33 3 -40 20 -40 17 0 20 7 20 40 0 33 -3 40 -20 40
-17 0 -20 -7 -20 -40z"/>
<path d="M16180 38830 c0 -5 5 -10 10 -10 6 0 10 5 10 10 0 6 -4 10 -10 10 -5
0 -10 -4 -10 -10z"/>
<path d="M19120 38740 c0 -17 7 -20 40 -20 33 0 40 3 40 20 0 17 -7 20 -40 20
-33 0 -40 -3 -40 -20z"/>
<path d="M16300 38661 c0 -6 5 -13 10 -16 6 -3 10 1 10 9 0 9 -4 16 -10 16 -5
0 -10 -4 -10 -9z"/>
<path d="M16340 37229 c0 -5 5 -7 10 -4 6 3 10 8 10 11 0 2 -4 4 -10 4 -5 0
-10 -5 -10 -11z"/>
<path d="M12467 36123 c-4 -7 -5 -25 -1 -40 4 -15 10 -72 13 -125 3 -53 9
-100 13 -104 14 -13 21 27 13 74 -10 63 -10 68 -2 136 6 49 5 57 -7 53 -8 -3
-16 -1 -19 6 -2 8 -5 8 -10 0z"/>
<path d="M11860 34973 c0 -15 19 -37 26 -31 3 4 -1 14 -10 23 -9 9 -16 13 -16
8z"/>
<path d="M17570 34951 c0 -5 -12 -23 -26 -40 -14 -17 -21 -31 -15 -31 6 0 11
-7 11 -15 0 -19 21 -19 46 0 13 10 15 14 5 15 -10 0 -12 10 -8 40 3 22 1 40
-4 40 -5 0 -9 -4 -9 -9z"/>
<path d="M17440 34737 c0 -9 -7 -17 -16 -17 -9 0 -14 -5 -12 -12 6 -18 28 -22
28 -5 0 9 6 17 13 20 10 4 10 7 0 18 -11 11 -13 10 -13 -4z"/>
<path d="M11745 33210 c-3 -5 -1 -10 4 -10 6 0 11 5 11 10 0 6 -2 10 -4 10 -3
0 -8 -4 -11 -10z"/>
<path d="M11754 33018 c3 -13 6 -31 6 -40 0 -10 7 -18 15 -18 11 0 15 11 15
40 0 34 -3 40 -21 40 -17 0 -20 -4 -15 -22z"/>
<path d="M12360 32440 c0 -11 5 -20 10 -20 6 0 10 9 10 20 0 11 -4 20 -10 20
-5 0 -10 -9 -10 -20z"/>
<path d="M12260 32271 c-15 -28 -13 -31 20 -31 17 0 30 3 30 6 0 12 -21 44
-30 44 -5 0 -14 -9 -20 -19z"/>
<path d="M17987 32183 c-10 -9 -9 -43 2 -43 5 0 11 6 14 13 6 17 -7 40 -16 30z"/>
<path d="M18283 32100 c-3 -11 -9 -20 -14 -20 -9 0 9 -59 22 -74 5 -6 9 17 9
52 0 62 -7 80 -17 42z"/>
<path d="M18400 32050 c0 -5 -6 -10 -14 -10 -8 0 -18 -9 -21 -20 -3 -11 -11
-20 -18 -20 -20 0 7 -18 32 -22 23 -3 25 1 28 40 1 23 1 42 -2 42 -3 0 -5 -4
-5 -10z"/>
<path d="M18205 32000 c-3 -5 1 -10 9 -10 9 0 16 5 16 10 0 6 -4 10 -9 10 -6
0 -13 -4 -16 -10z"/>
<path d="M12631 31984 c0 -11 3 -14 6 -6 3 7 2 16 -1 19 -3 4 -6 -2 -5 -13z"/>
<path d="M18332 31849 c-17 -27 -6 -38 15 -16 11 11 14 20 7 27 -6 6 -14 2
-22 -11z"/>
<path d="M12880 31781 c0 -18 6 -21 41 -21 33 0 40 3 37 18 -2 12 -14 18 -41
20 -32 3 -37 0 -37 -17z"/>
<path d="M13402 31628 c2 -13 11 -24 20 -26 14 -3 15 0 5 22 -15 32 -30 34
-25 4z"/>
<path d="M13613 31548 c2 -7 10 -13 17 -13 7 0 15 6 18 13 2 7 -5 12 -18 12
-13 0 -20 -5 -17 -12z"/>
<path d="M13500 31510 c0 -5 5 -10 10 -10 6 0 10 5 10 10 0 6 -4 10 -10 10 -5
0 -10 -4 -10 -10z"/>
<path d="M17600 31370 c0 -5 -9 -10 -20 -10 -17 0 -20 -7 -20 -40 0 -33 3 -40
20 -40 13 0 20 7 20 20 0 13 7 20 20 20 23 0 27 25 6 46 -17 16 -26 18 -26 4z"/>
<path d="M13767 31313 c-14 -13 -6 -33 13 -33 11 0 20 4 20 9 0 13 -26 32 -33
24z"/>
<path d="M17520 31271 c0 -5 -9 -11 -20 -14 -24 -6 -26 -25 -3 -34 10 -4 23 2
35 16 22 28 23 41 3 41 -8 0 -15 -4 -15 -9z"/>
<path d="M17593 31171 c-15 -24 -9 -29 22 -23 16 3 25 11 25 23 0 25 -32 25
-47 0z"/>
<path d="M15867 30184 c-13 -13 -7 -24 14 -24 11 0 19 5 17 12 -5 14 -22 21
-31 12z"/>
<path d="M19282 33509 c2 -6 8 -10 13 -10 5 0 11 4 13 10 2 6 -4 11 -13 11 -9
0 -15 -5 -13 -11z"/>
<path d="M19280 33350 c0 -5 5 -10 10 -10 6 0 10 5 10 10 0 6 -4 10 -10 10 -5
0 -10 -4 -10 -10z"/>
<path d="M10695 32090 c-3 -5 1 -10 9 -10 9 0 16 5 16 10 0 6 -4 10 -9 10 -6
0 -13 -4 -16 -10z"/>
<path d="M13440 29110 c0 -5 6 -10 14 -10 8 0 18 5 21 10 3 6 -3 10 -14 10
-12 0 -21 -4 -21 -10z"/>
<path d="M13740 28576 c0 -9 7 -16 16 -16 9 0 14 5 12 12 -6 18 -28 21 -28 4z"/>
<path d="M13760 28476 c0 -2 18 -19 40 -36 l40 -32 0 36 c0 35 -1 36 -40 36
-22 0 -40 -2 -40 -4z"/>
<path d="M13820 28371 c0 -6 5 -13 10 -16 6 -3 10 1 10 9 0 9 -4 16 -10 16 -5
0 -10 -4 -10 -9z"/>
<path d="M13760 28304 c0 -9 7 -14 17 -12 25 5 28 28 4 28 -12 0 -21 -6 -21
-16z"/>
<path d="M13761 28236 c9 -8 99 -13 99 -5 0 5 -23 9 -52 9 -28 0 -49 -2 -47
-4z"/>
<path d="M13900 28170 c0 -5 5 -10 10 -10 6 0 10 5 10 10 0 6 -4 10 -10 10 -5
0 -10 -4 -10 -10z"/>
<path d="M13760 27910 c0 -5 6 -10 14 -10 8 0 18 5 21 10 3 6 -3 10 -14 10
-12 0 -21 -4 -21 -10z"/>
<path d="M13827 27860 c-3 -11 -1 -20 4 -20 5 0 9 9 9 20 0 11 -2 20 -4 20 -2
0 -6 -9 -9 -20z"/>
<path d="M13840 27764 c0 -8 5 -12 10 -9 6 3 10 10 10 16 0 5 -4 9 -10 9 -5 0
-10 -7 -10 -16z"/>
<path d="M13721 26988 l-20 -21 25 -14 c35 -17 34 -18 34 22 0 40 -11 44 -39
13z"/>
<path d="M13706 26901 c-16 -3 -31 -11 -33 -18 -3 -7 3 -9 16 -6 19 5 21 1 21
-36 0 -34 3 -41 20 -41 16 0 20 7 20 33 0 17 3 42 6 55 7 24 2 25 -50 13z"/>
<path d="M13760 26705 c0 -9 6 -12 15 -9 8 4 15 10 15 15 0 5 -7 9 -15 9 -8 0
-15 -7 -15 -15z"/>
<path d="M13920 26655 c0 -8 7 -15 15 -15 8 0 15 7 15 15 0 8 -7 15 -15 15 -8
0 -15 -7 -15 -15z"/>
<path d="M13760 26402 c0 -4 18 -6 40 -4 22 2 40 6 40 8 0 2 -18 4 -40 4 -22
0 -40 -3 -40 -8z"/>
<path d="M12990 25802 c0 -27 6 -41 21 -50 12 -7 22 -12 23 -10 1 2 1 24 -2
51 -3 38 -8 47 -23 47 -15 0 -19 -7 -19 -38z"/>
<path d="M13040 25800 c0 -29 4 -40 15 -40 11 0 15 11 15 40 0 29 -4 40 -15
40 -11 0 -15 -11 -15 -40z"/>
<path d="M12960 25720 c0 -13 5 -20 13 -17 6 2 12 10 12 17 0 7 -6 15 -12 18
-8 2 -13 -5 -13 -18z"/>
</g>
</svg>
