<?xml version="1.0" standalone="no"?>
<!DOCTYPE svg PUBLIC "-//W3C//DTD SVG 20010904//EN"
 "http://www.w3.org/TR/2001/REC-SVG-20010904/DTD/svg10.dtd">
<svg version="1.0" xmlns="http://www.w3.org/2000/svg"
 width="160.000000pt" height="160.000000pt" viewBox="0 0 160.000000 160.000000"
 preserveAspectRatio="xMidYMid meet">

<g transform="translate(0.000000,160.000000) scale(0.100000,-0.100000)"
fill="#000000" stroke="none">
<path d="M0 800 l0 -800 800 0 800 0 0 800 0 800 -800 0 -800 0 0 -800z m868
729 c1 -8 -13 -33 -31 -54 l-34 -39 -7 39 c-7 33 -4 41 16 57 27 21 51 20 56
-3z m162 -125 c0 -2 -6 -2 -12 0 -7 2 -34 10 -60 16 -32 9 -48 18 -48 29 0 9
-3 27 -7 40 -5 21 3 17 60 -29 37 -30 67 -55 67 -56z m-450 -52 c0 -26 47 -67
104 -93 39 -17 60 -20 103 -15 58 7 62 2 43 -48 -8 -23 -15 -26 -57 -26 -87 0
-190 46 -187 83 1 9 -2 15 -6 12 -14 -8 -40 6 -40 22 0 8 -9 17 -20 20 -27 7
-25 17 6 42 33 26 54 27 54 3z m436 -14 c16 -17 23 -28 17 -24 -8 4 -13 2 -13
-7 0 -17 -44 -57 -93 -85 -21 -12 -40 -22 -42 -22 -2 0 -5 17 -7 38 -3 35 0
39 50 72 30 20 50 40 48 47 -9 23 9 14 40 -19z m404 -242 c69 -54 131 -104
137 -110 10 -9 -7 -72 -82 -296 -52 -157 -99 -292 -104 -301 -5 -9 -6 -22 0
-30 24 -39 -6 -186 -53 -255 -48 -71 -168 -96 -210 -45 -9 12 -28 21 -43 21
-24 0 -26 2 -15 15 7 9 19 14 27 11 9 -4 13 3 13 24 0 15 5 51 12 79 l11 51
64 0 c70 0 66 5 47 -60 -3 -11 -14 -20 -25 -20 -28 0 -22 -44 7 -48 36 -5 74
63 74 134 0 43 -27 58 -91 52 -48 -5 -49 -5 -42 20 5 21 3 24 -11 19 -10 -4
-25 -3 -34 2 -15 8 -17 1 -17 -69 -1 -70 -5 -87 -35 -147 -29 -57 -42 -72 -80
-90 -67 -35 -142 -25 -156 19 -4 13 -11 17 -25 13 -13 -4 -19 -2 -19 9 0 9 6
16 14 16 8 0 14 10 14 23 0 12 6 45 14 72 12 40 19 51 39 54 13 1 27 8 31 15
6 8 8 8 8 -1 0 -8 13 -13 31 -13 29 0 30 -1 24 -33 -10 -43 -13 -47 -36 -47
-28 0 -22 -44 7 -48 29 -4 55 29 69 93 13 53 12 58 -7 77 -17 17 -30 20 -75
16 -46 -4 -53 -2 -48 11 4 9 9 28 12 43 4 22 13 28 47 35 22 4 51 6 64 5 22
-3 21 -1 -10 27 -32 29 -53 26 -28 -4 9 -11 9 -15 1 -15 -11 0 -13 6 -15 51
l-2 26 37 -29 c28 -22 42 -28 62 -23 23 6 27 3 36 -27 l10 -33 -2 35 c-2 33
-4 35 -39 38 -48 4 -52 20 -17 60 33 37 39 39 39 15 0 -13 10 -8 37 21 27 29
34 33 30 18 -4 -12 -10 -31 -13 -42 -5 -15 -2 -20 11 -20 12 0 15 -5 11 -16
-4 -9 -2 -22 3 -28 5 -6 11 -22 14 -36 4 -24 4 -24 6 3 0 16 5 26 11 22 6 -3
10 3 10 15 0 11 6 23 14 26 14 6 16 21 3 40 -4 8 7 14 33 18 37 6 39 8 30 30
-6 18 -5 28 4 36 8 6 20 25 27 42 7 18 35 53 61 78 34 33 47 52 42 63 -3 10
-11 17 -17 17 -6 0 -23 12 -38 26 -25 24 -27 31 -22 83 7 66 8 68 28 51 9 -7
19 -10 22 -6 12 12 -26 137 -58 189 -36 58 -37 59 121 -67z m-1084 66 c-8 -16
-22 -34 -30 -41 -18 -15 -115 -45 -101 -32 20 20 130 100 138 101 4 0 1 -13
-7 -28z m-167 -156 c12 -19 39 -50 61 -70 l40 -36 0 -92 c0 -84 -2 -94 -27
-127 -47 -61 -44 -66 46 -84 55 -11 62 -16 94 -62 33 -49 121 -125 144 -125
13 0 10 28 -7 59 -9 17 -8 20 5 15 8 -4 18 -17 21 -31 6 -23 7 -23 26 -6 25
22 118 17 118 -7 0 -13 -65 -31 -86 -24 -14 4 -15 3 -6 -4 11 -7 11 -18 2 -51
-9 -35 -14 -41 -31 -36 -17 6 -19 1 -19 -48 0 -81 -26 -155 -69 -198 -80 -81
-201 -55 -201 42 0 52 36 162 60 184 20 18 20 18 20 -8 0 -36 13 -34 34 6 9
17 23 43 31 56 7 14 12 29 9 33 -6 9 -75 11 -98 2 -19 -7 -21 -35 -4 -52 12
-12 8 -14 -19 -11 -4 0 -10 -6 -13 -15 -3 -8 -51 143 -107 337 -101 351 -101
352 -81 370 28 24 33 22 57 -17z m741 -44 c-39 -4 -40 -4 -33 31 l6 28 29 -28
30 -28 -32 -3z m-250 -54 c0 -67 0 -68 -27 -69 -16 0 -54 -4 -85 -8 -51 -6
-56 -5 -47 10 16 30 70 69 97 70 24 2 24 2 5 6 -23 4 -22 5 9 44 39 49 48 39
48 -53z m334 13 l37 -30 -33 -5 c-18 -3 -59 -8 -91 -11 l-59 -5 7 32 c10 47
12 48 59 48 33 0 52 -7 80 -29z m-122 -133 c10 -21 23 -38 28 -38 6 0 8 5 4
12 -10 16 -11 58 -2 58 4 0 8 -5 8 -12 0 -6 3 -8 7 -5 3 4 11 3 18 -3 16 -13
55 -1 55 18 0 8 3 13 6 9 4 -3 1 -21 -5 -39 -10 -31 -10 -32 5 -13 8 11 17 30
21 43 5 22 23 31 23 12 0 -19 -29 -69 -47 -80 -17 -11 -17 -11 0 -6 9 3 24 9
33 13 15 5 16 0 9 -43 -4 -27 -11 -57 -17 -67 -9 -17 -7 -17 14 -6 60 32 100
65 127 105 15 24 31 40 35 36 4 -3 4 1 1 10 -8 21 12 33 30 18 21 -17 19 -59
-5 -97 -23 -38 -43 -50 -101 -59 -30 -5 -50 -16 -67 -36 -13 -15 -60 -46 -105
-68 -64 -31 -100 -42 -162 -48 -108 -12 -219 0 -253 25 -31 23 -44 67 -17 57
13 -6 13 1 -5 45 -23 60 -27 92 -8 73 7 -7 20 -12 30 -12 14 0 13 4 -7 25 -23
23 -34 65 -17 65 4 0 16 -15 26 -34 10 -19 26 -38 34 -41 14 -5 14 -4 0 12
-22 24 -2 57 25 41 10 -5 27 -6 39 -3 19 7 20 4 14 -21 -4 -16 -3 -24 1 -19 4
6 18 11 31 13 31 3 106 55 132 92 24 34 34 30 62 -32z m96 35 c-2 -10 -10 -18
-18 -18 -8 0 -16 8 -18 18 -2 12 3 17 18 17 15 0 20 -5 18 -17z m-338 -43 c0
-11 -6 -20 -14 -20 -21 0 -31 21 -15 31 22 14 29 11 29 -11z m37 -42 c-3 -7
-5 -2 -5 12 0 14 2 19 5 13 2 -7 2 -19 0 -25z m492 -172 c26 -41 26 -42 0 -49
-39 -10 -47 0 -35 43 5 22 11 40 12 40 1 0 12 -15 23 -34z m-259 -72 c0 -10
-6 -14 -15 -10 -8 3 -15 1 -15 -4 0 -5 -12 -7 -26 -4 -17 3 -23 1 -19 -6 4 -6
13 -9 21 -6 8 3 14 0 15 -7 0 -9 2 -9 6 1 2 6 9 12 14 12 6 0 2 -13 -8 -30
-20 -35 -25 -36 -45 -12 -18 22 -17 57 2 57 8 0 21 6 28 13 19 17 42 15 42 -4z
m260 -15 c0 -5 -7 -9 -15 -9 -15 0 -20 12 -9 23 8 8 24 -1 24 -14z m-665 1
c-3 -5 -1 -10 6 -10 7 0 10 -3 6 -6 -9 -9 -28 6 -22 17 4 5 8 9 11 9 3 0 2 -4
-1 -10z m288 -30 c-5 -19 -23 -39 -23 -25 0 9 20 45 24 45 2 0 2 -9 -1 -20z
m-49 -12 l-28 -23 39 -6 c22 -4 42 -3 43 2 2 5 8 6 13 3 6 -3 5 -11 -2 -20 -9
-11 -9 -14 0 -14 7 0 10 -3 8 -7 -7 -11 19 -33 28 -25 4 4 2 -4 -6 -18 l-13
-25 -7 25 c-6 21 -7 19 -8 -15 -1 -22 -14 -92 -29 -155 l-27 -115 -49 -3 c-48
-3 -48 -3 -42 22 l6 26 -70 0 c-45 0 -69 4 -65 10 3 5 36 10 73 10 l67 0 18
67 c9 36 15 68 12 71 -3 3 -5 -2 -5 -11 0 -9 -4 -17 -9 -17 -16 0 -29 25 -21
44 4 14 9 16 14 8 11 -19 36 -14 36 7 0 27 -24 43 -59 39 -35 -3 -35 -4 -26
45 6 29 13 39 34 44 14 3 28 9 31 13 9 11 54 40 64 40 5 0 -4 -10 -20 -22z
m-140 -173 c-16 -11 -17 -17 -6 -54 14 -45 3 -81 -24 -81 -13 0 -12 4 1 31 13
24 14 40 7 75 -5 24 -6 41 -1 38 5 -2 14 5 21 16 11 17 14 18 16 5 2 -9 -4
-22 -14 -30z"/>
<path d="M1016 425 c-3 -8 -1 -15 3 -15 5 0 11 7 15 15 3 8 1 15 -3 15 -5 0
-11 -7 -15 -15z"/>
<path d="M1174 420 c0 -13 4 -16 10 -10 7 7 7 13 0 20 -6 6 -10 3 -10 -10z"/>
<path d="M903 390 c-16 -6 -23 -18 -23 -35 0 -23 3 -25 49 -25 42 0 53 -4 74
-29 16 -20 28 -26 38 -21 7 5 17 6 21 4 4 -3 8 13 8 35 0 59 -26 81 -92 80
-29 0 -63 -4 -75 -9z"/>
<path d="M1151 384 c0 -11 3 -14 6 -6 3 7 2 16 -1 19 -3 4 -6 -2 -5 -13z"/>
<path d="M1188 388 c-9 -7 -18 -22 -20 -33 -3 -18 4 -21 54 -25 54 -5 87 -25
88 -54 0 -5 7 -2 17 5 9 8 19 12 22 9 3 -3 7 12 9 32 5 56 -23 78 -96 78 -32
0 -65 -6 -74 -12z"/>
<path d="M491 378 c-11 -30 -3 -84 15 -99 11 -9 15 -8 19 5 3 9 7 23 10 32 3
9 14 18 25 21 21 6 35 36 25 53 -3 5 -24 10 -46 10 -32 0 -41 -4 -48 -22z"/>
<path d="M430 336 c-26 -54 -50 -139 -50 -178 0 -21 5 -28 19 -28 26 0 37 17
55 86 18 68 20 131 7 152 -6 10 -15 1 -31 -32z"/>
<path d="M1186 743 c-6 -14 -5 -15 5 -6 7 7 10 15 7 18 -3 3 -9 -2 -12 -12z"/>
<path d="M658 389 c-10 -5 -18 -21 -18 -34 0 -21 5 -25 29 -25 21 0 37 -9 54
-31 l24 -32 22 22 c25 25 28 73 5 95 -18 18 -89 21 -116 5z"/>
</g>
</svg>
